<?xml version="1.0" standalone="no"?>
<!DOCTYPE svg PUBLIC "-//W3C//DTD SVG 20010904//EN"
 "http://www.w3.org/TR/2001/REC-SVG-20010904/DTD/svg10.dtd">
<svg version="1.0" xmlns="http://www.w3.org/2000/svg"
 width="35.000000pt" height="35.000000pt" viewBox="0 0 35.000000 35.000000"
 preserveAspectRatio="xMidYMid meet">

<g transform="translate(0.000000,35.000000) scale(0.100000,-0.100000)"
fill="#000000" stroke="none">
<path d="M50 191 c5 -11 7 -27 4 -35 -3 -9 -1 -16 5 -16 6 0 11 6 11 14 0 7 7
19 15 26 8 7 15 17 15 22 0 6 -7 4 -17 -3 -13 -11 -17 -11 -20 -1 -3 6 -9 12
-14 12 -6 0 -6 -8 1 -19z"/>
<path d="M117 203 c-4 -3 -7 -17 -7 -30 0 -28 26 -41 45 -22 18 19 29 59 16
59 -5 0 -11 -10 -13 -22 -2 -13 -11 -24 -21 -26 -15 -3 -17 1 -11 22 6 26 3
32 -9 19z"/>
<path d="M198 204 c-12 -21 -18 -64 -8 -64 5 0 10 9 10 20 0 11 4 20 9 20 5 0
13 -9 16 -20 7 -22 25 -27 25 -7 0 6 3 22 6 35 4 13 2 22 -5 22 -6 0 -11 -9
-11 -21 0 -21 0 -21 -18 2 -11 12 -21 18 -24 13z"/>
<path d="M260 138 c0 -4 9 -8 20 -8 11 0 20 4 20 8 0 4 -9 8 -20 8 -11 0 -20
-4 -20 -8z"/>
</g>
</svg>
